<svg width="9" height="15" xmlns="http://www.w3.org/2000/svg" xmlns:xlink="http://www.w3.org/1999/xlink" xmlns:svgjs="http://svgjs.com/svgjs" viewBox="0.214 0 8.571 15" fill="#C0301C"><svg xmlns="http://www.w3.org/2000/svg" width="9" height="15" viewBox="2 2 8 14"><path paint-order="stroke fill markers" fill-rule="evenodd" d="M2 14.835a.46.46 0 0 0 .137.323l.688.701a.47.47 0 0 0 .316.14.47.47 0 0 0 .316-.14l6.405-6.537A.49.49 0 0 0 10 9a.488.488 0 0 0-.138-.323L3.457 2.14A.469.469 0 0 0 3.141 2a.47.47 0 0 0-.316.14l-.688.701A.488.488 0 0 0 2 3.164c0 .112.055.238.137.323L7.54 9l-5.402 5.513a.489.489 0 0 0-.137.322z"/></svg></svg>