<svg width="9" height="15" xmlns="http://www.w3.org/2000/svg" xmlns:xlink="http://www.w3.org/1999/xlink" xmlns:svgjs="http://svgjs.com/svgjs" viewBox="0.214 0 8.571 15" fill="#C0301C"><svg xmlns="http://www.w3.org/2000/svg" width="9" height="15" viewBox="2 2 8 14"><path paint-order="stroke fill markers" fill-rule="evenodd" d="M10 3.164a.46.46 0 0 0-.137-.323l-.688-.701A.47.47 0 0 0 8.86 2a.47.47 0 0 0-.316.14L2.137 8.677A.488.488 0 0 0 2 9a.49.49 0 0 0 .137.322l6.406 6.537a.47.47 0 0 0 .316.14.47.47 0 0 0 .316-.14l.688-.701a.489.489 0 0 0 .137-.323.489.489 0 0 0-.137-.322L4.46 9l5.403-5.513A.488.488 0 0 0 10 3.164z"/></svg></svg>