<svg width="18" height="17" xmlns="http://www.w3.org/2000/svg" xmlns:xlink="http://www.w3.org/1999/xlink" xmlns:svgjs="http://svgjs.com/svgjs" viewBox="0.035 0 17.93 17" fill="#000"><svg xmlns="http://www.w3.org/2000/svg" width="18" height="17" viewBox="1.737 1.999 15.987 15.158"><path paint-order="stroke fill markers" fill-rule="evenodd" d="M2.585 5.78c0 1.286.445 2.214 1.322 2.76.718.447 1.553.513 1.986.513.105 0 .19-.003.248-.007 0 0-.137.864.526 1.719h-.03c-1.15 0-4.9.232-4.9 3.209 0 3.028 3.445 3.182 4.136 3.182h.085c.008 0 .057.002.141.002.444 0 1.59-.054 2.655-.554 1.38-.647 2.081-1.773 2.081-3.346 0-1.52-1.067-2.424-1.846-3.086-.476-.403-.887-.75-.887-1.089 0-.345.3-.604.68-.932.615-.53 1.194-1.286 1.194-2.714 0-1.255-.169-2.097-1.207-2.632.108-.053.49-.093.68-.118.563-.074 1.386-.158 1.386-.602V2H6.733c-.041.001-4.148.148-4.148 3.78zm6.622 7.761c.078 1.212-.995 2.106-2.606 2.219-1.637.115-2.984-.596-3.063-1.806-.038-.58.227-1.152.745-1.605.526-.46 1.248-.743 2.033-.799.093-.005.184-.01.276-.01 1.515 0 2.54.86 2.615 2.001zm-1.071-8.59c.402 1.366-.206 2.795-1.174 3.058-.111.03-.227.046-.343.046-.887 0-1.766-.867-2.092-2.06-.182-.67-.167-1.257.042-1.82.205-.555.573-.93 1.037-1.056.111-.03.227-.045.343-.045 1.071 0 1.76.428 2.187 1.876zm6.911 2.976V5.343h-1.695v2.584h-2.676v1.636h2.676v2.584h1.695V9.563h2.677V7.927h-2.677z"/></svg></svg>