<svg width="15" height="15" xmlns="http://www.w3.org/2000/svg" xmlns:xlink="http://www.w3.org/1999/xlink" xmlns:svgjs="http://svgjs.com/svgjs" fill="#fff"><svg xmlns="http://www.w3.org/2000/svg" width="15" height="15" viewBox="2 2 14 14"><path paint-order="stroke fill markers" fill-rule="evenodd" d="M5.18 6.549H2.174v9.45h3.008V6.55zm.192-2.919C5.363 2.705 4.725 2 3.695 2 2.675 2 2 2.705 2 3.63c0 .906.647 1.631 1.659 1.631h.018c1.048 0 1.704-.725 1.695-1.63zM16 10.583c0-2.9-1.477-4.254-3.454-4.254-1.623 0-2.334.944-2.726 1.593h.018V6.549H6.84s.036.887 0 9.45h2.998v-5.273c0-.286.028-.563.1-.773.22-.562.712-1.144 1.541-1.144 1.085 0 1.522.867 1.522 2.136V16H16v-5.417z"/></svg></svg>