<svg width="10" height="17" xmlns="http://www.w3.org/2000/svg" xmlns:xlink="http://www.w3.org/1999/xlink" xmlns:svgjs="http://svgjs.com/svgjs" viewBox="0.53 0 8.94 17" fill="#000"><svg xmlns="http://www.w3.org/2000/svg" width="10" height="17" viewBox="2 1.999 8.414 16"><path paint-order="stroke fill markers" fill-rule="evenodd" d="M10.097 2.003L8.08 1.999C5.812 2 4.347 3.545 4.347 5.937v1.815h-2.03A.322.322 0 0 0 2 8.079v2.63c0 .18.142.326.317.326h2.03v6.638c0 .18.141.327.317.327H7.31a.322.322 0 0 0 .318-.327v-6.638H10a.321.321 0 0 0 .317-.326l.001-2.63a.331.331 0 0 0-.093-.23.313.313 0 0 0-.224-.097H7.629V6.213c0-.739.171-1.115 1.108-1.115h1.36a.322.322 0 0 0 .317-.326V2.329a.322.322 0 0 0-.317-.326z"/></svg></svg>