<svg width="18" height="15" xmlns="http://www.w3.org/2000/svg" xmlns:xlink="http://www.w3.org/1999/xlink" xmlns:svgjs="http://svgjs.com/svgjs" viewBox="0 0.389 18 14.222" fill="#000"><svg xmlns="http://www.w3.org/2000/svg" width="18" height="15" viewBox="1.423 1.841 15.987 12.632"><path paint-order="stroke fill markers" fill-rule="evenodd" d="M16.97 2.075a6.708 6.708 0 0 1-2.085.774 3.313 3.313 0 0 0-2.393-1.008c-1.812 0-3.28 1.43-3.28 3.19 0 .25.03.493.085.726a9.4 9.4 0 0 1-6.76-3.332 3.1 3.1 0 0 0-.444 1.603c0 1.107.58 2.083 1.46 2.654a3.345 3.345 0 0 1-1.486-.4v.04c0 1.545 1.13 2.833 2.63 3.128a3.381 3.381 0 0 1-1.482.054c.418 1.267 1.629 2.189 3.063 2.216a6.702 6.702 0 0 1-4.072 1.364c-.265 0-.526-.015-.783-.044a9.48 9.48 0 0 0 5.028 1.433c6.032 0 9.33-4.86 9.33-9.075l-.01-.413a6.5 6.5 0 0 0 1.64-1.649 6.683 6.683 0 0 1-1.884.502 3.225 3.225 0 0 0 1.442-1.763z"/></svg></svg>